<svg xmlns="http://www.w3.org/2000/svg" viewBox="0 0 159 159"><defs><style>.cls-1{fill:#fff;}</style></defs><title>eliminar</title><g id="Capa_2" data-name="Capa 2"><g id="Capa_1-2" data-name="Capa 1"><path class="cls-1" d="M96.91,58.23H93.65v62.42h3.26Z"/><path class="cls-1" d="M64.46,58.12H61.19v62.43h3.27Z"/><path class="cls-1" d="M80.75,58.2H77.41v62.42h3.34Z"/><path class="cls-1" d="M79.5,0A79.5,79.5,0,1,0,159,79.5,79.5,79.5,0,0,0,79.5,0Zm29.64,52.86v67.61c0,6.63-1.92,8.53-8.61,8.53H57.08c-6.08,0-8.26-2.16-8.26-8.15q0-34.06,0-68.12V50.06h60.33Zm8-9.53h-76a33.46,33.46,0,0,1,.07-6.1c.51-2.6,3.22-4.27,6.29-4.29,5.74,0,11.48,0,17.65,0,0-1.82,0-3.34,0-4.86.1-3.76,2.17-5.95,5.89-6q8.1-.12,16.2,0c3.57.05,5.69,2.25,5.82,5.83,0,1.6,0,3.21,0,5.08,5.92,0,11.55,0,17.18,0,3.73,0,6.48,1.93,6.89,4.91A42.7,42.7,0,0,1,117.13,43.33Z"/><path class="cls-1" d="M85.64,25.85c-3.68,0-7.35,0-11,0-5.76,0-5.89.13-5.54,5.89a6.93,6.93,0,0,0,.19,1.05H89.21V29.38C89.18,26.27,88.78,25.86,85.64,25.85Z"/></g></g></svg>