<svg xmlns="http://www.w3.org/2000/svg" viewBox="0 0 147 147"><defs><style>.cls-1{fill:#fff;}</style></defs><title>estrella</title><g id="Capa_2" data-name="Capa 2"><g id="Capa_1-2" data-name="Capa 1"><path class="cls-1" d="M73.5,0A73.5,73.5,0,1,0,147,73.5,73.5,73.5,0,0,0,73.5,0Zm47.87,64.44L101,84.32l4.81,28.08a5.38,5.38,0,0,1-2.15,5.27,5.37,5.37,0,0,1-5.67.41L72.75,104.83,47.54,118.08a5.39,5.39,0,0,1-7.83-5.68l4.82-28.07L24.13,64.44a5.38,5.38,0,0,1,3-9.19l28.19-4.1L67.92,25.6a5.38,5.38,0,0,1,9.66,0L90.2,51.15l28.19,4.09a5.4,5.4,0,0,1,3,9.2Z"/></g></g></svg>