<svg xmlns="http://www.w3.org/2000/svg" viewBox="0 0 260 260"><defs><style>.cls-1{fill:white;}</style></defs><title>Fotos</title><g id="Capa_2" data-name="Capa 2"><g id="Capa_1-2" data-name="Capa 1"><circle class="cls-1" cx="200.15" cy="97.64" r="6.52"/><path class="cls-1" d="M132.15,81.82a46.58,46.58,0,1,0,46.58,46.58A46.57,46.57,0,0,0,132.15,81.82Zm0,74.52A27.95,27.95,0,1,1,160.1,128.4,27.94,27.94,0,0,1,132.15,156.34Z"/><path class="cls-1" d="M130,0A130,130,0,1,0,260,130,130,130,0,0,0,130,0Zm76.67,193.6h-149A18.68,18.68,0,0,1,39,175V91.14A18.68,18.68,0,0,1,57.63,72.51H80a8.29,8.29,0,0,0,7.35-5.31l5.78-17.34a8.3,8.3,0,0,1,7.36-5.3h63.34a8.31,8.31,0,0,1,7.36,5.3L177,67.2a8.29,8.29,0,0,0,7.35,5.31h22.36A18.68,18.68,0,0,1,225.3,91.14V175A18.68,18.68,0,0,1,206.67,193.6Z"/></g></g></svg>