<svg xmlns="http://www.w3.org/2000/svg" viewBox="0 0 147 147"><defs><style>.cls-1{fill:#fff;}</style></defs><title>mapa</title><g id="Capa_2" data-name="Capa 2"><g id="Capa_1-2" data-name="Capa 1"><path class="cls-1" d="M75.35,43.78A19.37,19.37,0,1,0,94.72,63.15,19.36,19.36,0,0,0,75.35,43.78Z"/><path class="cls-1" d="M73.5,0A73.5,73.5,0,1,0,147,73.5,73.5,73.5,0,0,0,73.5,0Zm1.55,124c-4.75-3.73-37.22-30-37.22-57.63a37.51,37.51,0,0,1,36.92-37.5v0h.6v0a37.5,37.5,0,0,1,36.92,37.5C112.27,94,79.8,120.27,75.05,124Z"/></g></g></svg>