<?xml version="1.0" encoding="utf-8"?>
<!-- Generator: Adobe Illustrator 23.0.0, SVG Export Plug-In . SVG Version: 6.00 Build 0)  -->
<svg version="1.1" id="Capa_1" xmlns="http://www.w3.org/2000/svg" xmlns:xlink="http://www.w3.org/1999/xlink" x="0px" y="0px"
	 viewBox="0 0 124.6 124.6" style="enable-background:new 0 0 124.6 124.6;" xml:space="preserve">
<style type="text/css">
	.st0{fill:#FFFFFF;}
</style>
<g>
	<path class="st0" d="M-281.6,10.8c-10.7,0-19.4,8.7-19.4,19.4c0,10.7,8.7,19.4,19.4,19.4s19.4-8.7,19.4-19.4
		C-262.3,19.5-271,10.8-281.6,10.8z"/>
	<path class="st0" d="M-283.5-33C-324.1-33-357-0.1-357,40.5c0,40.6,32.9,73.5,73.5,73.5c40.6,0,73.5-32.9,73.5-73.5
		C-210-0.1-242.9-33-283.5-33z M-281.9,91c-4.8-3.7-37.2-30-37.2-57.6c0-20.5,16.5-37.2,36.9-37.5v0c0.1,0,0.2,0,0.3,0
		c0.1,0,0.2,0,0.3,0v0c20.4,0.3,36.9,17,36.9,37.5C-244.7,61-277.2,87.3-281.9,91z"/>
</g>
<circle class="st0" cx="321.9" cy="-187.5" r="73.5"/>
<circle class="st0" cx="-41.5" cy="-142.5" r="73.5"/>
</svg>
