<svg xmlns="http://www.w3.org/2000/svg" viewBox="0 0 147 147"><defs><style>.cls-1{fill:#fff;}</style></defs><title>producto</title><g id="Capa_2" data-name="Capa 2"><g id="Capa_1-2" data-name="Capa 1"><path class="cls-1" d="M73.5,0A73.5,73.5,0,1,0,147,73.5,73.5,73.5,0,0,0,73.5,0ZM47,107.7c-1.48,4.62-5,7.41-8.94,7.11s-7.22-3.63-8.24-8.48L24.71,82.09l0-.23a23.11,23.11,0,0,1,1.79-11.69,23.08,23.08,0,0,0,1.45,3.15L33.42,84c3,5.76,7.46,10,12.68,12A18.83,18.83,0,0,0,50.48,97Zm.68-18.56a18.32,18.32,0,0,1-9.54-9l-5.55-10.8A16.79,16.79,0,0,1,30.94,57.6a13.41,13.41,0,0,1,6.1-9l8.58-5.94a32.21,32.21,0,0,0-.25,5.83L46,62a34.1,34.1,0,0,0,2.52,13.4,31.54,31.54,0,0,0,9,13.44l.27.22A13.91,13.91,0,0,1,47.71,89.14Zm30.15-1.89H71.14c-7.62-.35-14.44-6.14-17.55-15a25.41,25.41,0,0,1-1.94-10.4L51,48.07a21.24,21.24,0,0,1,4-13.71c2.79-3.73,6.57-5.78,10.64-5.78H83.38c4.07,0,7.85,2.05,10.64,5.78a21.24,21.24,0,0,1,4,13.71l-.64,13.81a25.25,25.25,0,0,1-1.95,10.4C92.3,81.11,85.48,86.9,77.86,87.25Zm13.37,1.82.27-.22a31.54,31.54,0,0,0,9-13.44A34.1,34.1,0,0,0,103,62l.62-13.53a32.14,32.14,0,0,0-.28-6.07l8.63,6.2a13.4,13.4,0,0,1,6.08,9,16.79,16.79,0,0,1-1.68,11.72l-5.55,10.8a18.3,18.3,0,0,1-9.55,9A13.88,13.88,0,0,1,91.23,89.07Zm33.08-7.21,0,.23-5.14,24.24c-1,4.85-4.26,8.17-8.24,8.48s-7.47-2.49-8.94-7.11l0-.15L98.52,97A18.83,18.83,0,0,0,102.9,96c5.22-2,9.72-6.21,12.68-12l5.49-10.67a23.08,23.08,0,0,0,1.45-3.15A23.22,23.22,0,0,1,124.31,81.86Z"/></g></g></svg>