<svg xmlns="http://www.w3.org/2000/svg" viewBox="0 0 260 260"><defs><style>.cls-1{fill:#633608;}</style></defs><title>Gg</title><g id="Capa_2" data-name="Capa 2"><g id="Capa_1-2" data-name="Capa 1"><path class="cls-1" d="M130,0A130,130,0,1,0,260,130,130,130,0,0,0,130,0Zm84.17,134.4c-.45,13.63-3.15,26.74-9.46,38.91-11,21.23-28.39,34.37-51.61,39.63-22.66,5.12-44.46,2.58-64.55-9.45-24-14.37-38.25-35.62-41.67-63.45-5.3-43.1,21.52-82.69,63.43-93.36,27.85-7.09,53.38-1.64,75.83,16.74.79.65,1.53,1.35,2.29,2,.2.18.37.39.56.58l-24.05,24c-.61-.52-1.36-1.16-2.13-1.8a48.87,48.87,0,0,0-61.18-.65c-16.5,12.75-23.71,30-20.16,50.53,3.67,21.26,16.38,35.73,37.26,41.66,16.45,4.67,32.15,1.88,45.88-8.86,7.15-5.59,11.48-13.14,13.59-22a9.83,9.83,0,0,0,.19-1.21,6.26,6.26,0,0,0-.11-.83H132V113.72h80.6A94.45,94.45,0,0,1,214.17,134.4Z"/></g></g></svg>